<svg width="410" height="28" viewBox="0 0 410 28" fill="none" xmlns="http://www.w3.org/2000/svg">
<path d="M26.6849 18.6055L36.5555 2H11.2907L19.7164 11.0875L22.2069 6.85241H27.0832L22.4872 14.1401L26.6849 18.6055Z" fill="white"/>
<path d="M13.3889 10.371L3.87891 25.9864L27.9095 26.0307L20.2794 17.8493L18.0593 21.6854H13.183L17.4428 14.7729L13.3889 10.371Z" fill="white"/>
<path d="M39.8848 22.153L44.2711 14.579L39.9276 7.13379H43.1371L46.1113 12.5622H46.4964L49.4706 7.13379H52.6802L48.3366 14.579L52.723 22.153H49.5134L46.4964 16.5959H46.1113L43.0943 22.153H39.8848Z" fill="white"/>
<path d="M55.8802 22.153V7.13379H65.2948V9.70851H58.7046V13.3346H64.7813V15.9093H58.7046V22.153H55.8802Z" fill="white"/>
<path d="M73.6455 22.4534C72.5899 22.4534 71.6413 22.2388 70.7997 21.8097C69.9581 21.3806 69.2948 20.7583 68.8098 19.943C68.3248 19.1277 68.0823 18.1479 68.0823 17.0035V16.6602C68.0823 15.5159 68.3248 14.5361 68.8098 13.7208C69.2948 12.9054 69.9581 12.2832 70.7997 11.8541C71.6413 11.425 72.5899 11.2104 73.6455 11.2104C74.7011 11.2104 75.6497 11.425 76.4913 11.8541C77.3329 12.2832 77.9962 12.9054 78.4812 13.7208C78.9662 14.5361 79.2087 15.5159 79.2087 16.6602V17.0035C79.2087 18.1479 78.9662 19.1277 78.4812 19.943C77.9962 20.7583 77.3329 21.3806 76.4913 21.8097C75.6497 22.2388 74.7011 22.4534 73.6455 22.4534ZM73.6455 20.0503C74.4729 20.0503 75.1576 19.7857 75.6996 19.2564C76.2417 18.7129 76.5127 17.9404 76.5127 16.9392V16.7246C76.5127 15.7233 76.2417 14.9581 75.6996 14.4288C75.1718 13.8853 74.4871 13.6135 73.6455 13.6135C72.8182 13.6135 72.1335 13.8853 71.5914 14.4288C71.0493 14.9581 70.7783 15.7233 70.7783 16.7246V16.9392C70.7783 17.9404 71.0493 18.7129 71.5914 19.2564C72.1335 19.7857 72.8182 20.0503 73.6455 20.0503Z" fill="white"/>
<path d="M82.9811 22.153V11.5108H85.6343V12.7123H86.0195C86.1764 12.2832 86.4332 11.9685 86.7898 11.7683C87.1607 11.568 87.5886 11.4679 88.0736 11.4679H89.3574V13.871H88.0308C87.3461 13.871 86.7826 14.0569 86.3404 14.4288C85.8982 14.7864 85.6771 15.3443 85.6771 16.1024V22.153H82.9811Z" fill="white"/>
<path d="M91.8589 16.8748V16.5315C91.8589 15.4158 92.08 14.4646 92.5222 13.6779C92.9644 12.8768 93.5492 12.2689 94.2767 11.8541C95.0185 11.425 95.8244 11.2104 96.6946 11.2104C97.6646 11.2104 98.3992 11.3821 98.8985 11.7254C99.3977 12.0687 99.7615 12.4263 99.9897 12.7982H100.375V11.5108H103.028V24.0411C103.028 24.7706 102.814 25.3499 102.386 25.779C101.958 26.2225 101.388 26.4442 100.674 26.4442H93.5706V24.084H99.7329C100.132 24.084 100.332 23.8694 100.332 23.4403V20.6725H99.9469C99.8043 20.9014 99.6046 21.1374 99.3478 21.3806C99.091 21.6094 98.7487 21.8025 98.3207 21.9599C97.8928 22.1172 97.3507 22.1959 96.6946 22.1959C95.8244 22.1959 95.0185 21.9885 94.2767 21.5737C93.5492 21.1445 92.9644 20.5366 92.5222 19.7499C92.08 18.9489 91.8589 17.9905 91.8589 16.8748ZM97.4649 19.8357C98.2922 19.8357 98.9841 19.5711 99.5404 19.0419C100.097 18.5126 100.375 17.7688 100.375 16.8104V16.5959C100.375 15.6232 100.097 14.8794 99.5404 14.3645C98.9983 13.8352 98.3065 13.5706 97.4649 13.5706C96.6375 13.5706 95.9457 13.8352 95.3894 14.3645C94.833 14.8794 94.5549 15.6232 94.5549 16.5959V16.8104C94.5549 17.7688 94.833 18.5126 95.3894 19.0419C95.9457 19.5711 96.6375 19.8357 97.4649 19.8357Z" fill="white"/>
<path d="M112.137 22.4534C111.081 22.4534 110.147 22.2316 109.334 21.7882C108.535 21.3305 107.907 20.694 107.451 19.8786C107.009 19.049 106.787 18.0763 106.787 16.9606V16.7032C106.787 15.5874 107.009 14.6219 107.451 13.8066C107.893 12.977 108.513 12.3404 109.312 11.897C110.111 11.4393 111.038 11.2104 112.094 11.2104C113.135 11.2104 114.041 11.4464 114.811 11.9185C115.582 12.3762 116.181 13.0199 116.609 13.8495C117.037 14.6648 117.251 15.6161 117.251 16.7032V17.6258H109.526C109.555 18.3553 109.826 18.9489 110.339 19.4066C110.853 19.8643 111.48 20.0932 112.222 20.0932C112.978 20.0932 113.535 19.9287 113.891 19.5997C114.248 19.2707 114.519 18.906 114.704 18.5055L116.908 19.6641C116.708 20.036 116.416 20.4436 116.031 20.8871C115.66 21.3162 115.161 21.6881 114.533 22.0028C113.905 22.3032 113.107 22.4534 112.137 22.4534ZM109.548 15.6089H114.512C114.455 14.9938 114.205 14.5003 113.763 14.1284C113.335 13.7565 112.771 13.5706 112.072 13.5706C111.345 13.5706 110.767 13.7565 110.339 14.1284C109.911 14.5003 109.647 14.9938 109.548 15.6089Z" fill="white"/>
<path d="M139.62 16.8205C138.673 17.7271 138.04 18.1805 137.72 18.1805C137.48 18.1805 137.313 17.9938 137.22 17.6205C137.127 17.2471 137.08 16.6405 137.08 15.8005C137.08 15.3605 137.107 14.6871 137.16 13.7805C136.333 14.6338 135.627 15.4671 135.04 16.2805C134.467 17.0938 134.093 17.6938 133.92 18.0805L133.68 18.6405C133.6 18.8938 133.5 19.0205 133.38 19.0205C133.273 19.0205 133.187 18.8871 133.12 18.6205C133.04 18.3538 133 18.1338 133 17.9605C133 17.8005 133.02 17.6605 133.06 17.5405C133.1 17.4071 133.14 17.3205 133.18 17.2805L133.24 17.2005C134.507 15.8538 135.827 14.5138 137.2 13.1805C137.307 11.9538 137.36 11.2738 137.36 11.1405C137.36 11.0338 137.353 10.9338 137.34 10.8405C137.34 10.7338 137.333 10.6471 137.32 10.5805C137.32 10.5005 137.313 10.4271 137.3 10.3605C137.3 10.2938 137.293 10.2405 137.28 10.2005C137.267 10.1605 137.253 10.1271 137.24 10.1005C137.227 10.0605 137.213 10.0338 137.2 10.0205C137.2 9.9938 137.193 9.9738 137.18 9.96047C137.18 9.94714 137.173 9.9338 137.16 9.92047C137.133 9.8938 137.12 9.86714 137.12 9.84047C137.12 9.68047 137.273 9.50047 137.58 9.30047C137.887 9.08714 138.147 8.98047 138.36 8.98047C138.573 8.98047 138.68 9.24714 138.68 9.78047C138.68 10.2338 138.653 10.9271 138.6 11.8605C140 10.5538 141.033 9.7138 141.7 9.34047C142.02 9.18047 142.233 9.10047 142.34 9.10047C142.5 9.10047 142.627 9.2538 142.72 9.56047C142.813 9.86714 142.86 10.1271 142.86 10.3405C142.86 10.4338 142.827 10.4871 142.76 10.5005C142.707 10.5005 142.613 10.4338 142.48 10.3005C142.36 10.1671 142.22 10.1005 142.06 10.1005C141.793 10.1005 141.467 10.2071 141.08 10.4205C140.707 10.6338 140.393 10.8471 140.14 11.0605L139.76 11.3805C139.267 11.7805 138.867 12.1271 138.56 12.4205C138.52 13.0205 138.5 13.6138 138.5 14.2005C138.5 15.8271 138.693 16.6405 139.08 16.6405C139.28 16.6405 139.933 16.0605 141.04 14.9005C141.627 14.2871 142.313 13.5338 143.1 12.6405C143.14 12.6005 143.173 12.5805 143.2 12.5805C143.227 12.5805 143.24 12.6071 143.24 12.6605C143.24 12.9138 143.14 13.1605 142.94 13.4005C141.78 14.6938 140.673 15.8338 139.62 16.8205Z" fill="white"/>
<g clip-path="url(#clip0_9887_8966)">
<path fill-rule="evenodd" clip-rule="evenodd" d="M178.992 21.3419C178.992 20.0649 178.638 18.8338 177.884 17.7393L175.048 13.6807L177.884 9.62208C178.638 8.57322 178.992 7.29637 178.992 6.0195C178.992 2.64494 176.289 0.0456023 173.099 0.0456023C171.237 0.0456023 169.376 1.00325 168.224 2.64494L166.806 4.65143C166.274 1.9609 164.014 0 161.134 0C157.81 0 155.24 2.73613 155.24 6.11071V21.3875C155.24 24.7621 157.855 27.4982 161.134 27.4982C163.97 27.4982 166.186 25.674 166.762 23.0292L168.003 24.8532C169.155 26.5861 171.06 27.4982 172.921 27.4982C176.289 27.5437 178.992 24.7164 178.992 21.3419ZM180.752 6.57776C180.752 3.01482 183.596 0 187.151 0C190.707 0 193.551 3.01482 193.507 6.57776V20.9209C193.507 24.4839 190.707 27.4987 187.107 27.4987C183.596 27.4987 180.752 24.5295 180.752 20.9209V6.57776ZM218.139 19.9412C218.139 17.0274 216.74 14.9786 213.941 13.7494C216.74 12.5201 218.139 10.5169 218.139 7.55759C218.139 3.1414 214.598 0 208.913 0C201.304 0 195.707 5.87307 195.707 13.7494C195.707 21.6257 201.304 27.4987 208.913 27.4987C214.598 27.4987 218.139 24.3573 218.139 19.9412ZM242.981 17.7393C243.735 18.8338 244.09 20.0649 244.09 21.3419C244.09 24.7164 241.382 27.5437 238.053 27.4982C236.188 27.4982 234.279 26.5861 233.124 24.8532L231.881 23.0292C231.304 25.674 229.084 27.4982 226.243 27.4982C222.958 27.4982 220.338 24.7621 220.338 21.3875V6.11071C220.338 2.73613 222.913 0 226.243 0C229.129 0 231.393 1.9609 231.926 4.65143L233.302 2.64494C234.456 1.00325 236.321 0.0456023 238.186 0.0456023C241.382 0.0456023 244.09 2.64494 244.09 6.0195C244.09 7.29637 243.735 8.57322 242.981 9.62208L240.139 13.6807L242.981 17.7393ZM266.523 19.0365C266.523 16.2777 265.201 14.3464 263.217 12.5071L261.587 10.9897C263.967 10.6218 265.554 8.96648 265.554 6.52945C265.554 2.43705 262.424 0 255.812 0C249.333 0 245.543 3.40267 245.543 8.78255C245.543 11.5415 246.909 13.4267 248.892 15.3119L250.479 16.8294H250.435C247.482 16.8294 245.41 18.6227 245.41 21.4276C245.41 25.474 248.672 27.957 255.636 27.957C262.468 27.957 266.523 24.5084 266.523 19.0365ZM299.916 22.7184C301.418 25.9508 303.536 27.4987 306.14 27.4987C310.819 27.4987 314.129 23.0825 312.099 18.1201L306.669 5.00804C305.346 1.77558 303.36 0 299.961 0C296.607 0 294.621 1.77558 293.252 5.00804L287.824 18.1201C285.749 23.0825 289.104 27.4987 293.738 27.4987C296.297 27.4987 298.416 25.9508 299.916 22.7184ZM314.467 7.28686C314.467 2.79539 316.772 0.458007 320.895 0.458007H328.562C333.217 0.458007 336.852 4.1245 336.852 8.84512C336.852 11.4117 335.833 13.5199 334.147 14.849L336.453 18.653C337.073 19.6613 337.34 20.7613 337.34 21.9071C337.34 25.2986 334.768 27.9567 331.533 27.9567C329.538 27.9567 327.587 26.9027 326.48 24.9777L325.859 23.8319C325.106 26.2609 323.022 27.9567 320.363 27.9567C317.127 27.9567 314.467 25.1152 314.467 21.6779V7.28686ZM349.347 27.9567C352.998 27.9567 355.725 25.1611 355.725 21.7696V12.2825C358.672 12.145 361.091 9.57842 361.091 6.37024C361.091 3.07038 358.54 0.458007 355.417 0.458007H343.453C340.33 0.458007 337.779 3.02456 337.779 6.37024C337.779 9.57842 340.199 12.0991 343.146 12.2825V21.7696C343.146 25.1611 345.916 27.9567 349.347 27.9567ZM379.678 17.6039C381.906 18.066 383.524 20.0533 383.524 22.6876C383.524 25.6453 381.251 28.0022 378.498 27.956H369.319C365.123 27.956 362.851 25.6453 362.851 21.1162V7.29786C362.851 2.81498 365.123 0.458007 369.319 0.458007H378.498C381.251 0.458007 383.524 2.81498 383.524 5.77276C383.524 8.45324 381.95 10.3943 379.678 10.8564C380.726 11.5497 381.295 12.705 381.295 14.2302C381.295 15.7552 380.683 16.9106 379.678 17.6039ZM391.18 27.9567C387.944 27.9567 385.284 25.1152 385.284 21.6779V7.28686C385.284 2.79539 387.545 0.458007 391.711 0.458007H399.379C404.034 0.458007 407.669 4.1245 407.669 8.84512C407.669 11.4117 406.648 13.5199 404.964 14.849L407.27 18.653C407.89 19.6613 408.155 20.7613 408.155 21.9071C408.155 25.2986 405.585 27.9567 402.35 27.9567C400.354 27.9567 398.404 26.9027 397.297 24.9777L396.675 23.8319C395.921 26.2609 393.839 27.9567 391.18 27.9567ZM284.458 21.7696C284.458 25.1611 281.682 27.9567 278.113 27.9567C274.675 27.9567 271.899 25.1611 271.899 21.7696V12.2825C268.946 12.0991 266.523 9.57842 266.523 6.37024C266.523 3.02456 269.079 0.458007 272.208 0.458007H284.15C287.279 0.458007 289.835 3.07038 289.835 6.37024C289.835 9.57842 287.411 12.145 284.458 12.2825V21.7696Z" fill="#05CE78"/>
</g>
<defs>
<clipPath id="clip0_9887_8966">
<rect width="254" height="28" fill="white" transform="translate(155.24)"/>
</clipPath>
</defs>
</svg>
