<svg width="245" height="16" viewBox="0 0 245 16" fill="none" xmlns="http://www.w3.org/2000/svg">
<path d="M15.216 10.6314L20.8447 1.14258H6.43748L11.2423 6.33542L12.6625 3.91538H15.4431L12.8223 8.07976L15.216 10.6314Z" fill="#050505"/>
<path d="M7.634 5.926L2.21094 14.8491L15.9143 14.8744L11.5633 10.1993L10.2973 12.3914H7.5166L9.9457 8.44137L7.634 5.926Z" fill="#050505"/>
<path d="M22.7441 12.6586L25.2455 8.33059L22.7685 4.07617H24.5988L26.2948 7.17809H26.5144L28.2104 4.07617H30.0407L27.5638 8.33059L30.0651 12.6586H28.2349L26.5144 9.48308H26.2948L24.5744 12.6586H22.7441Z" fill="#050505"/>
<path d="M31.8655 12.6586V4.07617H37.2342V5.54744H33.4761V7.61947H36.9413V9.09074H33.4761V12.6586H31.8655Z" fill="#050505"/>
<path d="M41.9961 12.8302C41.3942 12.8302 40.8533 12.7076 40.3733 12.4624C39.8934 12.2172 39.5152 11.8616 39.2386 11.3957C38.962 10.9298 38.8237 10.3699 38.8237 9.71603V9.51986C38.8237 8.86596 38.962 8.30606 39.2386 7.84016C39.5152 7.37426 39.8934 7.01871 40.3733 6.77349C40.8533 6.52828 41.3942 6.40568 41.9961 6.40568C42.5981 6.40568 43.139 6.52828 43.6189 6.77349C44.0989 7.01871 44.4771 7.37426 44.7537 7.84016C45.0303 8.30606 45.1686 8.86596 45.1686 9.51986V9.71603C45.1686 10.3699 45.0303 10.9298 44.7537 11.3957C44.4771 11.8616 44.0989 12.2172 43.6189 12.4624C43.139 12.7076 42.5981 12.8302 41.9961 12.8302ZM41.9961 11.457C42.4679 11.457 42.8584 11.3058 43.1675 11.0034C43.4766 10.6928 43.6312 10.2514 43.6312 9.67925V9.55664C43.6312 8.98448 43.4766 8.54719 43.1675 8.24476C42.8665 7.93416 42.4761 7.77886 41.9961 7.77886C41.5243 7.77886 41.1339 7.93416 40.8248 8.24476C40.5157 8.54719 40.3611 8.98448 40.3611 9.55664V9.67925C40.3611 10.2514 40.5157 10.6928 40.8248 11.0034C41.1339 11.3058 41.5243 11.457 41.9961 11.457Z" fill="#050505"/>
<path d="M47.3197 12.6586V6.57733H48.8327V7.26392H49.0524C49.1418 7.01871 49.2883 6.83888 49.4916 6.72445C49.7031 6.61002 49.9472 6.5528 50.2237 6.5528H50.9558V7.92599H50.1993C49.8089 7.92599 49.4876 8.03225 49.2354 8.24476C48.9832 8.4491 48.8571 8.76788 48.8571 9.20108V12.6586H47.3197Z" fill="#050505"/>
<path d="M52.3823 9.64247V9.4463C52.3823 8.80875 52.5083 8.2652 52.7605 7.81564C53.0127 7.35791 53.3462 7.01053 53.761 6.77349C54.184 6.52828 54.6436 6.40568 55.1398 6.40568C55.693 6.40568 56.1119 6.50376 56.3966 6.69993C56.6813 6.8961 56.8887 7.10044 57.0189 7.31296H57.2385V6.57733H58.7515V13.7375C58.7515 14.1543 58.6295 14.4854 58.3854 14.7306C58.1414 14.984 57.816 15.1107 57.4093 15.1107H53.3584V13.762H56.8724C57.1002 13.762 57.2141 13.6394 57.2141 13.3942V11.8126H56.9945C56.9131 11.9434 56.7992 12.0782 56.6528 12.2172C56.5064 12.348 56.3112 12.4583 56.0671 12.5482C55.8231 12.6381 55.514 12.6831 55.1398 12.6831C54.6436 12.6831 54.184 12.5646 53.761 12.3275C53.3462 12.0823 53.0127 11.7349 52.7605 11.2854C52.5083 10.8277 52.3823 10.28 52.3823 9.64247ZM55.5791 11.3344C56.0509 11.3344 56.4454 11.1832 56.7626 10.8808C57.0799 10.5784 57.2385 10.1533 57.2385 9.60568V9.48308C57.2385 8.92727 57.0799 8.50223 56.7626 8.20798C56.4535 7.90555 56.059 7.75434 55.5791 7.75434C55.1073 7.75434 54.7128 7.90555 54.3955 8.20798C54.0783 8.50223 53.9197 8.92727 53.9197 9.48308V9.60568C53.9197 10.1533 54.0783 10.5784 54.3955 10.8808C54.7128 11.1832 55.1073 11.3344 55.5791 11.3344Z" fill="#050505"/>
<path d="M63.9456 12.8302C63.3437 12.8302 62.8109 12.7035 62.3472 12.4501C61.8917 12.1886 61.5338 11.8248 61.2735 11.3589C61.0213 10.8849 60.8952 10.3291 60.8952 9.69151V9.54438C60.8952 8.90683 61.0213 8.35511 61.2735 7.8892C61.5257 7.41513 61.8795 7.0514 62.335 6.79802C62.7906 6.53646 63.3193 6.40568 63.9212 6.40568C64.515 6.40568 65.0316 6.54054 65.4708 6.81028C65.9101 7.07183 66.2517 7.43965 66.4958 7.91373C66.7398 8.37963 66.8618 8.92318 66.8618 9.54438V10.0716H62.457C62.4733 10.4884 62.6279 10.8277 62.9207 11.0892C63.2135 11.3508 63.5715 11.4815 63.9944 11.4815C64.4256 11.4815 64.7428 11.3876 64.9462 11.1996C65.1495 11.0116 65.3041 10.8031 65.4098 10.5743L66.6666 11.2363C66.5527 11.4489 66.386 11.6818 66.1663 11.9352C65.9548 12.1804 65.6701 12.3929 65.3122 12.5727C64.9543 12.7444 64.4988 12.8302 63.9456 12.8302ZM62.4692 8.91909H65.3C65.2675 8.56762 65.1251 8.28563 64.873 8.07311C64.6289 7.8606 64.3076 7.75434 63.909 7.75434C63.4942 7.75434 63.1647 7.8606 62.9207 8.07311C62.6767 8.28563 62.5262 8.56762 62.4692 8.91909Z" fill="#050505"/>
<path d="M86.6973 11.3705C85.3105 12.4542 84.3828 12.996 83.9141 12.996C83.5625 12.996 83.3184 12.7729 83.1816 12.3267C83.0449 11.8805 82.9766 11.1554 82.9766 10.1514C82.9766 9.6255 83.0156 8.82072 83.0938 7.73705C81.8828 8.75697 80.8477 9.75299 79.9883 10.7251C79.1484 11.6972 78.6016 12.4143 78.3477 12.8765L77.9961 13.5458C77.8789 13.8486 77.7324 14 77.5566 14C77.4004 14 77.2734 13.8406 77.1758 13.5219C77.0586 13.2032 77 12.9402 77 12.7331C77 12.5418 77.0293 12.3745 77.0879 12.2311C77.1465 12.0717 77.2051 11.9681 77.2637 11.9203L77.3516 11.8247C79.207 10.2151 81.1406 8.61355 83.1523 7.01992C83.3086 5.55379 83.3867 4.74104 83.3867 4.58167C83.3867 4.45418 83.377 4.33466 83.3574 4.22311C83.3574 4.09562 83.3477 3.99203 83.3281 3.91235C83.3281 3.81673 83.3184 3.72908 83.2988 3.6494C83.2988 3.56972 83.2891 3.50598 83.2695 3.45817C83.25 3.41036 83.2305 3.37052 83.2109 3.33865C83.1914 3.29084 83.1719 3.25896 83.1523 3.24303C83.1523 3.21116 83.1426 3.18725 83.123 3.17131C83.123 3.15538 83.1133 3.13944 83.0938 3.12351C83.0547 3.09163 83.0352 3.05976 83.0352 3.02789C83.0352 2.83665 83.2598 2.62151 83.709 2.38247C84.1582 2.12749 84.5391 2 84.8516 2C85.1641 2 85.3203 2.31873 85.3203 2.95618C85.3203 3.49801 85.2812 4.32669 85.2031 5.44223C87.2539 3.88048 88.7676 2.87649 89.7441 2.43028C90.2129 2.23904 90.5254 2.14343 90.6816 2.14343C90.916 2.14343 91.1016 2.32669 91.2383 2.69323C91.375 3.05976 91.4434 3.37052 91.4434 3.6255C91.4434 3.73705 91.3945 3.8008 91.2969 3.81673C91.2187 3.81673 91.082 3.73705 90.8867 3.57769C90.7109 3.41833 90.5059 3.33865 90.2715 3.33865C89.8809 3.33865 89.4023 3.46614 88.8359 3.72112C88.2891 3.9761 87.8301 4.23108 87.459 4.48606L86.9023 4.86853C86.1797 5.34661 85.5937 5.76096 85.1445 6.11155C85.0859 6.82869 85.0566 7.53785 85.0566 8.23904C85.0566 10.1833 85.3398 11.1554 85.9062 11.1554C86.1992 11.1554 87.1562 10.4622 88.7773 9.0757C89.6367 8.34263 90.6426 7.44223 91.7949 6.3745C91.8535 6.32669 91.9023 6.30279 91.9414 6.30279C91.9805 6.30279 92 6.33466 92 6.39841C92 6.7012 91.8535 6.99602 91.5605 7.28287C89.8613 8.82869 88.2402 10.1912 86.6973 11.3705Z" fill="#050505"/>
<g clip-path="url(#clip0_9817_410)">
<path fill-rule="evenodd" clip-rule="evenodd" d="M113.559 12.1954C113.559 11.4657 113.357 10.7622 112.927 10.1367L111.308 7.81754L112.927 5.49833C113.357 4.89898 113.559 4.16935 113.559 3.43971C113.559 1.51139 112.016 0.0260585 110.195 0.0260585C109.132 0.0260585 108.07 0.573286 107.412 1.51139L106.603 2.65796C106.299 1.12051 105.009 0 103.365 0C101.467 0 100 1.5635 100 3.49183V12.2214C100 14.1498 101.493 15.7133 103.365 15.7133C104.984 15.7133 106.248 14.6709 106.577 13.1595L107.286 14.2018C107.943 15.1921 109.031 15.7133 110.094 15.7133C112.016 15.7393 113.559 14.1237 113.559 12.1954ZM114.564 3.75872C114.564 1.72275 116.187 0 118.217 0C120.247 0 121.87 1.72275 121.845 3.75872V11.9548C121.845 13.9908 120.247 15.7135 118.192 15.7135C116.187 15.7135 114.564 14.0169 114.564 11.9548V3.75872ZM135.907 11.395C135.907 9.72992 135.108 8.5592 133.511 7.85678C135.108 7.15435 135.907 6.00966 135.907 4.31862C135.907 1.79509 133.885 0 130.64 0C126.296 0 123.101 3.35604 123.101 7.85678C123.101 12.3575 126.296 15.7135 130.64 15.7135C133.885 15.7135 135.907 13.9185 135.907 11.395ZM150.088 10.1367C150.519 10.7622 150.722 11.4657 150.722 12.1954C150.722 14.1237 149.176 15.7393 147.275 15.7133C146.21 15.7133 145.12 15.1921 144.461 14.2018L143.752 13.1595C143.422 14.6709 142.155 15.7133 140.533 15.7133C138.658 15.7133 137.162 14.1498 137.162 12.2214V3.49183C137.162 1.5635 138.632 0 140.533 0C142.181 0 143.473 1.12051 143.777 2.65796L144.563 1.51139C145.222 0.573286 146.286 0.0260585 147.351 0.0260585C149.176 0.0260585 150.722 1.51139 150.722 3.43971C150.722 4.16935 150.519 4.89898 150.088 5.49833L148.466 7.81754L150.088 10.1367ZM163.528 10.878C163.528 9.30152 162.773 8.19792 161.641 7.14691L160.709 6.27982C162.068 6.06962 162.974 5.1237 162.974 3.73111C162.974 1.3926 161.188 0 157.413 0C153.714 0 151.551 1.94438 151.551 5.0186C151.551 6.59513 152.33 7.67242 153.463 8.74968L154.369 9.6168H154.344C152.658 9.6168 151.475 10.6415 151.475 12.2443C151.475 14.5566 153.337 15.9754 157.313 15.9754C161.213 15.9754 163.528 14.0048 163.528 10.878ZM182.591 12.9819C183.448 14.829 184.657 15.7135 186.144 15.7135C188.814 15.7135 190.704 13.19 189.545 10.3543L186.446 2.86174C185.69 1.01462 184.557 0 182.616 0C180.702 0 179.568 1.01462 178.786 2.86174L175.687 10.3543C174.503 13.19 176.418 15.7135 179.064 15.7135C180.525 15.7135 181.734 14.829 182.591 12.9819ZM190.897 4.16392C190.897 1.59737 192.213 0.261718 194.566 0.261718H198.944C201.601 0.261718 203.676 2.35686 203.676 5.05435C203.676 6.52095 203.094 7.72566 202.132 8.48512L203.448 10.6589C203.802 11.235 203.955 11.8636 203.955 12.5183C203.955 14.4563 202.486 15.9753 200.64 15.9753C199.5 15.9753 198.387 15.373 197.755 14.273L197.401 13.6182C196.971 15.0062 195.781 15.9753 194.263 15.9753C192.415 15.9753 190.897 14.3515 190.897 12.3874V4.16392ZM210.809 15.9753C212.893 15.9753 214.45 14.3778 214.45 12.4398V7.01854C216.132 6.93998 217.513 5.47338 217.513 3.64014C217.513 1.7545 216.057 0.261718 214.274 0.261718H207.444C205.662 0.261718 204.205 1.72832 204.205 3.64014C204.205 5.47338 205.586 6.91379 207.269 7.01854V12.4398C207.269 14.3778 208.85 15.9753 210.809 15.9753ZM228.124 10.0594C229.396 10.3234 230.32 11.459 230.32 12.9643C230.32 14.6545 229.022 16.0013 227.45 15.9749H222.21C219.815 15.9749 218.518 14.6545 218.518 12.0664V4.17021C218.518 1.60856 219.815 0.261718 222.21 0.261718H227.45C229.022 0.261718 230.32 1.60856 230.32 3.29872C230.32 4.83042 229.421 5.93959 228.124 6.20367C228.722 6.59981 229.047 7.26002 229.047 8.13152C229.047 9.00296 228.698 9.6632 228.124 10.0594ZM234.69 15.9753C232.842 15.9753 231.324 14.3515 231.324 12.3874V4.16392C231.324 1.59737 232.615 0.261718 234.993 0.261718H239.371C242.028 0.261718 244.103 2.35686 244.103 5.05435C244.103 6.52095 243.52 7.72566 242.559 8.48512L243.875 10.6589C244.229 11.235 244.381 11.8636 244.381 12.5183C244.381 14.4563 242.913 15.9753 241.067 15.9753C239.927 15.9753 238.814 15.373 238.182 14.273L237.827 13.6182C237.397 15.0062 236.208 15.9753 234.69 15.9753ZM173.766 12.4398C173.766 14.3778 172.181 15.9753 170.144 15.9753C168.181 15.9753 166.596 14.3778 166.596 12.4398V7.01854C164.911 6.91379 163.527 5.47338 163.527 3.64014C163.527 1.72832 164.986 0.261718 166.773 0.261718H173.59C175.376 0.261718 176.836 1.7545 176.836 3.64014C176.836 5.47338 175.452 6.93998 173.766 7.01854V12.4398Z" fill="#05CE78"/>
</g>
<defs>
<clipPath id="clip0_9817_410">
<rect width="145" height="16" fill="white" transform="translate(100)"/>
</clipPath>
</defs>
</svg>
