<svg width="118" height="28" viewBox="0 0 118 28" fill="none" xmlns="http://www.w3.org/2000/svg">
<path d="M26.6849 18.6055L36.5555 2H11.2907L19.7164 11.0875L22.2069 6.85241H27.0832L22.4872 14.1401L26.6849 18.6055Z" fill="white"/>
<path d="M13.3889 10.371L3.87891 25.9864L27.9095 26.0307L20.2794 17.8493L18.0593 21.6854H13.183L17.4428 14.7729L13.3889 10.371Z" fill="white"/>
<path d="M39.8848 22.153L44.2711 14.579L39.9276 7.13379H43.1371L46.1113 12.5622H46.4964L49.4706 7.13379H52.6802L48.3366 14.579L52.723 22.153H49.5134L46.4964 16.5959H46.1113L43.0943 22.153H39.8848Z" fill="white"/>
<path d="M55.8802 22.153V7.13379H65.2948V9.70851H58.7046V13.3346H64.7813V15.9093H58.7046V22.153H55.8802Z" fill="white"/>
<path d="M73.6455 22.4534C72.5899 22.4534 71.6413 22.2388 70.7997 21.8097C69.9581 21.3806 69.2948 20.7583 68.8098 19.943C68.3248 19.1277 68.0823 18.1479 68.0823 17.0035V16.6602C68.0823 15.5159 68.3248 14.5361 68.8098 13.7208C69.2948 12.9054 69.9581 12.2832 70.7997 11.8541C71.6413 11.425 72.5899 11.2104 73.6455 11.2104C74.7011 11.2104 75.6497 11.425 76.4913 11.8541C77.3329 12.2832 77.9962 12.9054 78.4812 13.7208C78.9662 14.5361 79.2087 15.5159 79.2087 16.6602V17.0035C79.2087 18.1479 78.9662 19.1277 78.4812 19.943C77.9962 20.7583 77.3329 21.3806 76.4913 21.8097C75.6497 22.2388 74.7011 22.4534 73.6455 22.4534ZM73.6455 20.0503C74.4729 20.0503 75.1576 19.7857 75.6996 19.2564C76.2417 18.7129 76.5127 17.9404 76.5127 16.9392V16.7246C76.5127 15.7233 76.2417 14.9581 75.6996 14.4288C75.1718 13.8853 74.4871 13.6135 73.6455 13.6135C72.8182 13.6135 72.1335 13.8853 71.5914 14.4288C71.0493 14.9581 70.7783 15.7233 70.7783 16.7246V16.9392C70.7783 17.9404 71.0493 18.7129 71.5914 19.2564C72.1335 19.7857 72.8182 20.0503 73.6455 20.0503Z" fill="white"/>
<path d="M82.9811 22.153V11.5108H85.6343V12.7123H86.0195C86.1764 12.2832 86.4332 11.9685 86.7898 11.7683C87.1607 11.568 87.5886 11.4679 88.0736 11.4679H89.3574V13.871H88.0308C87.3461 13.871 86.7826 14.0569 86.3404 14.4288C85.8982 14.7864 85.6771 15.3443 85.6771 16.1024V22.153H82.9811Z" fill="white"/>
<path d="M91.8589 16.8748V16.5315C91.8589 15.4158 92.08 14.4646 92.5222 13.6779C92.9644 12.8768 93.5492 12.2689 94.2767 11.8541C95.0185 11.425 95.8244 11.2104 96.6946 11.2104C97.6646 11.2104 98.3992 11.3821 98.8985 11.7254C99.3977 12.0687 99.7615 12.4263 99.9897 12.7982H100.375V11.5108H103.028V24.0411C103.028 24.7706 102.814 25.3499 102.386 25.779C101.958 26.2225 101.388 26.4442 100.674 26.4442H93.5706V24.084H99.7329C100.132 24.084 100.332 23.8694 100.332 23.4403V20.6725H99.9469C99.8043 20.9014 99.6046 21.1374 99.3478 21.3806C99.091 21.6094 98.7487 21.8025 98.3207 21.9599C97.8928 22.1172 97.3507 22.1959 96.6946 22.1959C95.8244 22.1959 95.0185 21.9885 94.2767 21.5737C93.5492 21.1445 92.9644 20.5366 92.5222 19.7499C92.08 18.9489 91.8589 17.9905 91.8589 16.8748ZM97.4649 19.8357C98.2922 19.8357 98.9841 19.5711 99.5404 19.0419C100.097 18.5126 100.375 17.7688 100.375 16.8104V16.5959C100.375 15.6232 100.097 14.8794 99.5404 14.3645C98.9983 13.8352 98.3065 13.5706 97.4649 13.5706C96.6375 13.5706 95.9457 13.8352 95.3894 14.3645C94.833 14.8794 94.5549 15.6232 94.5549 16.5959V16.8104C94.5549 17.7688 94.833 18.5126 95.3894 19.0419C95.9457 19.5711 96.6375 19.8357 97.4649 19.8357Z" fill="white"/>
<path d="M112.137 22.4534C111.081 22.4534 110.147 22.2316 109.334 21.7882C108.535 21.3305 107.907 20.694 107.451 19.8786C107.009 19.049 106.787 18.0763 106.787 16.9606V16.7032C106.787 15.5874 107.009 14.6219 107.451 13.8066C107.893 12.977 108.513 12.3404 109.312 11.897C110.111 11.4393 111.038 11.2104 112.094 11.2104C113.135 11.2104 114.041 11.4464 114.811 11.9185C115.582 12.3762 116.181 13.0199 116.609 13.8495C117.037 14.6648 117.251 15.6161 117.251 16.7032V17.6258H109.526C109.555 18.3553 109.826 18.9489 110.339 19.4066C110.853 19.8643 111.48 20.0932 112.222 20.0932C112.978 20.0932 113.535 19.9287 113.891 19.5997C114.248 19.2707 114.519 18.906 114.704 18.5055L116.908 19.6641C116.708 20.036 116.416 20.4436 116.031 20.8871C115.66 21.3162 115.161 21.6881 114.533 22.0028C113.905 22.3032 113.107 22.4534 112.137 22.4534ZM109.548 15.6089H114.512C114.455 14.9938 114.205 14.5003 113.763 14.1284C113.335 13.7565 112.771 13.5706 112.072 13.5706C111.345 13.5706 110.767 13.7565 110.339 14.1284C109.911 14.5003 109.647 14.9938 109.548 15.6089Z" fill="white"/>
</svg>
