<svg width="68" height="16" viewBox="0 0 68 16" fill="none" xmlns="http://www.w3.org/2000/svg">
<path d="M15.216 10.6314L20.8447 1.14258H6.43748L11.2423 6.33542L12.6625 3.91538H15.4431L12.8223 8.07976L15.216 10.6314Z" fill="#050505"/>
<path d="M7.634 5.926L2.21094 14.8491L15.9143 14.8744L11.5633 10.1993L10.2973 12.3914H7.5166L9.9457 8.44137L7.634 5.926Z" fill="#050505"/>
<path d="M22.7441 12.6586L25.2455 8.33059L22.7685 4.07617H24.5988L26.2948 7.17809H26.5144L28.2104 4.07617H30.0407L27.5638 8.33059L30.0651 12.6586H28.2349L26.5144 9.48308H26.2948L24.5744 12.6586H22.7441Z" fill="#050505"/>
<path d="M31.8655 12.6586V4.07617H37.2342V5.54744H33.4761V7.61947H36.9413V9.09074H33.4761V12.6586H31.8655Z" fill="#050505"/>
<path d="M41.9961 12.8302C41.3942 12.8302 40.8533 12.7076 40.3733 12.4624C39.8934 12.2172 39.5152 11.8616 39.2386 11.3957C38.962 10.9298 38.8237 10.3699 38.8237 9.71603V9.51986C38.8237 8.86596 38.962 8.30606 39.2386 7.84016C39.5152 7.37426 39.8934 7.01871 40.3733 6.77349C40.8533 6.52828 41.3942 6.40568 41.9961 6.40568C42.5981 6.40568 43.139 6.52828 43.6189 6.77349C44.0989 7.01871 44.4771 7.37426 44.7537 7.84016C45.0303 8.30606 45.1686 8.86596 45.1686 9.51986V9.71603C45.1686 10.3699 45.0303 10.9298 44.7537 11.3957C44.4771 11.8616 44.0989 12.2172 43.6189 12.4624C43.139 12.7076 42.5981 12.8302 41.9961 12.8302ZM41.9961 11.457C42.4679 11.457 42.8584 11.3058 43.1675 11.0034C43.4766 10.6928 43.6312 10.2514 43.6312 9.67925V9.55664C43.6312 8.98448 43.4766 8.54719 43.1675 8.24476C42.8665 7.93416 42.4761 7.77886 41.9961 7.77886C41.5243 7.77886 41.1339 7.93416 40.8248 8.24476C40.5157 8.54719 40.3611 8.98448 40.3611 9.55664V9.67925C40.3611 10.2514 40.5157 10.6928 40.8248 11.0034C41.1339 11.3058 41.5243 11.457 41.9961 11.457Z" fill="#050505"/>
<path d="M47.3197 12.6586V6.57733H48.8327V7.26392H49.0524C49.1418 7.01871 49.2883 6.83888 49.4916 6.72445C49.7031 6.61002 49.9472 6.5528 50.2237 6.5528H50.9558V7.92599H50.1993C49.8089 7.92599 49.4876 8.03225 49.2354 8.24476C48.9832 8.4491 48.8571 8.76788 48.8571 9.20108V12.6586H47.3197Z" fill="#050505"/>
<path d="M52.3823 9.64247V9.4463C52.3823 8.80875 52.5083 8.2652 52.7605 7.81564C53.0127 7.35791 53.3462 7.01053 53.761 6.77349C54.184 6.52828 54.6436 6.40568 55.1398 6.40568C55.693 6.50376 56.1119 6.50376 56.3966 6.69993C56.6813 6.8961 56.8887 7.10044 57.0189 7.31296H57.2385V6.57733H58.7515V13.7375C58.7515 14.1543 58.6295 14.4854 58.3854 14.7306C58.1414 14.984 57.816 15.1107 57.4093 15.1107H53.3584V13.762H56.8724C57.1002 13.762 57.2141 13.6394 57.2141 13.3942V11.8126H56.9945C56.9131 11.9434 56.7992 12.0782 56.6528 12.2172C56.5064 12.348 56.3112 12.4583 56.0671 12.5482C55.8231 12.6381 55.514 12.6831 55.1398 12.6831C54.6436 12.6831 54.184 12.5646 53.761 12.3275C53.3462 12.0823 53.0127 11.7349 52.7605 11.2854C52.5083 10.8277 52.3823 10.28 52.3823 9.64247ZM55.5791 11.3344C56.0509 11.3344 56.4454 11.1832 56.7626 10.8808C57.0799 10.5784 57.2385 10.1533 57.2385 9.60568V9.48308C57.2385 8.92727 57.0799 8.50223 56.7626 8.20798C56.4535 7.90555 56.059 7.75434 55.5791 7.75434C55.1073 7.75434 54.7128 7.90555 54.3955 8.20798C54.0783 8.50223 53.9197 8.92727 53.9197 9.48308V9.60568C53.9197 10.1533 54.0783 10.5784 54.3955 10.8808C54.7128 11.1832 55.1073 11.3344 55.5791 11.3344Z" fill="#050505"/>
<path d="M63.9456 12.8302C63.3437 12.8302 62.8109 12.7035 62.3472 12.4501C61.8917 12.1886 61.5338 11.8248 61.2735 11.3589C61.0213 10.8849 60.8952 10.3291 60.8952 9.69151V9.54438C60.8952 8.90683 61.0213 8.35511 61.2735 7.8892C61.5257 7.41513 61.8795 7.0514 62.335 6.79802C62.7906 6.53646 63.3193 6.40568 63.9212 6.40568C64.515 6.40568 65.0316 6.54054 65.4708 6.81028C65.9101 7.07183 66.2517 7.43965 66.4958 7.91373C66.7398 8.37963 66.8618 8.92318 66.8618 9.54438V10.0716H62.457C62.4733 10.4884 62.6279 10.8277 62.9207 11.0892C63.2135 11.3508 63.5715 11.4815 63.9944 11.4815C64.4256 11.4815 64.7428 11.3876 64.9462 11.1996C65.1495 11.0116 65.3041 10.8031 65.4098 10.5743L66.6666 11.2363C66.5527 11.4489 66.386 11.6818 66.1663 11.9352C65.9548 12.1804 65.6701 12.3929 65.3122 12.5727C64.9543 12.7444 64.4988 12.8302 63.9456 12.8302ZM62.4692 8.91909H65.3C65.2675 8.56762 65.1251 8.28563 64.873 8.07311C64.6289 7.8606 64.3076 7.75434 63.909 7.75434C63.4942 7.75434 63.1647 7.8606 62.9207 8.07311C62.6767 8.28563 62.5262 8.56762 62.4692 8.91909Z" fill="#050505"/>
</svg>
